<?xml version="1.0" standalone="no"?>
<!DOCTYPE svg PUBLIC "-//W3C//DTD SVG 20010904//EN"
 "http://www.w3.org/TR/2001/REC-SVG-20010904/DTD/svg10.dtd">
<svg version="1.0" xmlns="http://www.w3.org/2000/svg"
 width="16.000000pt" height="16.000000pt" viewBox="0 0 16.000000 16.000000"
 preserveAspectRatio="xMidYMid meet">
<metadata>
Created by potrace 1.11, written by Peter Selinger 2001-2013
</metadata>
<g transform="translate(0.000000,16.000000) scale(0.002286,-0.002286)"
fill="#000000" stroke="none">
<path d="M3248 6996 c-1 -2 -43 -7 -93 -10 -49 -4 -99 -9 -110 -11 -11 -2 -39
-7 -63 -9 -266 -32 -609 -127 -881 -243 -311 -133 -601 -311 -871 -536 -135
-113 -372 -356 -464 -475 -11 -15 -23 -29 -26 -32 -32 -29 -218 -305 -292
-435 -149 -262 -303 -651 -353 -895 -42 -203 -55 -275 -60 -325 -4 -33 -8 -67
-10 -75 -25 -93 -25 -745 0 -823 2 -6 6 -34 9 -62 18 -165 86 -449 150 -633
125 -354 255 -607 467 -907 167 -236 445 -526 669 -698 30 -23 57 -44 60 -48
14 -15 209 -145 310 -206 123 -73 419 -223 442 -223 5 0 27 -9 51 -19 160 -73
566 -183 762 -206 28 -4 57 -8 65 -10 8 -2 53 -7 100 -11 47 -3 101 -8 120
-10 48 -5 416 -5 465 0 22 3 72 7 111 11 39 3 80 7 90 9 11 2 42 7 69 10 28 4
57 9 65 11 8 2 32 6 54 10 233 34 583 147 852 275 763 362 1368 990 1699 1766
83 193 184 515 211 674 3 14 11 61 18 105 8 44 17 107 21 140 4 33 8 74 10 90
15 110 22 486 11 585 -2 19 -7 71 -11 115 -3 44 -8 89 -11 100 -2 11 -6 36 -8
55 -13 104 -59 313 -97 448 -94 328 -226 616 -430 940 -11 17 -11 26 -2 40 35
51 77 143 89 197 19 81 22 122 19 205 -4 112 -23 191 -68 280 -155 311 -516
460 -841 348 -56 -19 -135 -58 -162 -79 -6 -5 -44 13 -97 46 -48 30 -89 55
-93 55 -3 0 -18 9 -33 20 -29 20 -236 125 -306 155 -186 79 -458 173 -555 191
-14 3 -51 11 -82 19 -67 17 -265 50 -358 61 -36 4 -81 9 -100 11 -44 5 -507
13 -512 9z m427 -351 c55 -3 111 -8 125 -10 14 -1 50 -6 80 -10 298 -36 678
-154 971 -301 102 -50 277 -152 284 -165 3 -4 -6 -41 -19 -81 -104 -309 15
-638 293 -812 172 -108 407 -131 600 -57 30 11 58 18 62 15 15 -9 107 -169
172 -299 154 -311 249 -624 301 -995 25 -183 26 -661 1 -760 -2 -8 -6 -37 -10
-65 -45 -374 -201 -815 -411 -1162 -170 -280 -406 -560 -634 -753 -36 -30 -67
-57 -70 -60 -9 -10 -192 -145 -240 -177 -169 -113 -394 -230 -595 -308 -111
-44 -316 -109 -390 -125 -214 -45 -325 -63 -480 -77 -144 -13 -597 -5 -625 12
-3 1 -36 6 -75 10 -38 4 -72 8 -75 10 -3 2 -26 6 -50 10 -85 12 -374 86 -386
98 -4 4 -14 7 -21 7 -25 0 -295 111 -413 169 -709 354 -1254 962 -1534 1714
-69 184 -143 483 -161 648 -3 31 -7 66 -10 77 -15 82 -22 423 -11 572 27 356
113 700 253 1020 162 367 364 662 653 950 334 334 695 566 1135 727 141 51
332 105 455 127 187 35 267 44 430 52 74 4 136 7 137 8 4 3 153 -2 258 -9z"/>
<path d="M2770 5938 c-52 -9 -111 -19 -131 -22 -86 -12 -284 -48 -287 -51 -10
-9 -4 -4258 6 -4264 8 -5 438 -6 500 -2 9 1 12 251 12 1214 l0 1214 60 16 c33
10 127 29 208 44 124 23 174 27 322 26 196 0 277 -16 396 -74 162 -80 265
-258 300 -519 3 -25 8 -54 10 -65 13 -70 18 -325 18 -1043 l1 -812 25 -1 c29
-1 470 -1 487 0 8 1 10 235 8 939 -1 515 -5 948 -8 962 -3 14 -8 49 -11 77
-53 472 -266 777 -639 917 -51 19 -104 37 -118 40 -13 2 -49 10 -79 16 -98 20
-162 25 -330 25 -146 0 -254 -7 -300 -20 -8 -2 -31 -7 -50 -10 -63 -10 -204
-47 -252 -66 l-48 -19 -2 748 -3 747 -95 -17z"/>
</g>
</svg>
